SplineFontDB: 3.0
FontName: AyannaNarrowTamil-ExtraBold
FullName: AyannaNarrow
FamilyName: AyannaNarrow
Weight: ExtraBold
Copyright: Licensed under the SIL Open Font License 1.1 (see file OFL.txt)
Version: pre
ItalicAngle: 0
UnderlinePosition: -102
UnderlineWidth: 0
Ascent: 819
Descent: 205
InvalidEm: 0
sfntRevision: 0x00028000
LayerCount: 3
Layer: 0 0 "Back" 1
Layer: 1 0 "Fore" 0
Layer: 2 0 "Old_Fore" 0
XUID: [1021 59 -1845969167 10851406]
FSType: 0
OS2Version: 3
OS2_WeightWidthSlopeOnly: 0
OS2_UseTypoMetrics: 1
CreationTime: 1435046519
ModificationTime: 1438001633
PfmFamily: 17
TTFWeight: 400
TTFWidth: 5
LineGap: 0
VLineGap: 0
Panose: 2 0 6 0 0 0 0 0 0 0
OS2TypoAscent: 819
OS2TypoAOffset: 0
OS2TypoDescent: -205
OS2TypoDOffset: 0
OS2TypoLinegap: 0
OS2WinAscent: 535
OS2WinAOffset: 0
OS2WinDescent: 221
OS2WinDOffset: 0
HheadAscent: 541
HheadAOffset: 0
HheadDescent: -238
HheadDOffset: 0
OS2SubXSize: 861
OS2SubYSize: 799
OS2SubXOff: 0
OS2SubYOff: 246
OS2SupXSize: 861
OS2SupYSize: 799
OS2SupXOff: 0
OS2SupYOff: 615
OS2StrikeYSize: 61
OS2StrikeYPos: 307
OS2CapHeight: 0
OS2XHeight: 0
OS2Vendor: 'ACE '
OS2CodePages: 00000001.00000000
OS2UnicodeRanges: 80108003.00002042.00000000.00000000
Lookup: 260 0 0 "Mark to base attachment in Tamil lookup 0" { "Mark to base attachment in Tamil lookup 0-1"  } ['abvm' ('DFLT' <'dflt' > 'taml' <'dflt' > ) ]
MarkAttachClasses: 1
DEI: 91125
LangName: 1033 "" "" "Medium" "" "" "Version 2.5.0" "" "" "" "" "" "" "" "" "" "" "ayanna-tamil" "tamil"
Encoding: tamil
Compacted: 1
UnicodeInterp: none
NameList: Lohit-Tamil
DisplaySize: -128
AntiAlias: 1
FitToEm: 1
WinInfo: 0 13 6
BeginPrivate: 5
BlueShift 1 0
StdHW 4 [35]
StdVW 4 [36]
StemSnapH 13 [35 36 37 66]
StemSnapV 21 [8 10 35 36 37 38 66]
EndPrivate
Grid
679 1331 m 0
 679 -717 l 1024
121 1331 m 0
 121 -717 l 1024
-1024 555 m 0
 2048 555 l 1024
1399 888 m 1
 -158 -570 l 1025
  Named: "1"
1259 887 m 1
 -298 -571 l 1025
  Named: "1"
-1024 545 m 1
 2048 545 l 1025
  Named: "tamil_overshoot"

StartChar: tml_E
Encoding: 9 2958 0
Width: 662
Flags: HMW
HStem: 0 21G<-26 79 -26 -26 260 260 260 365> 485 35
VStem: 94 36 399 36
LayerCount: 3
Back
Fore
SplineSet
36 239 m 260
 36 417.046875 140.021484375 543.703125 293 545 c 260
 296 450 l 260
 193.323242188 450 135 366.071289062 135 248 c 260
 135 154 153 66 222 66 c 260
 268 66 283 128 283 160 c 260
 283 206 262 251 217 251 c 260
 173 251 138 221 121 196 c 261
 110.874023438 218.708007812 97.0810546875 250.600585938 86 278 c 261
 117 315 164 345 221 345 c 260
 332 345 383 249 383 160 c 260
 383 52 322 -24 223 -24 c 260
 107 -24 36 87 36 239 c 260
291 545 m 1
 635 545 l 1
 635 450 l 1
 535 450 l 1
 535 0 l 1
 430 0 l 1x3e
 430 450 l 1
 289 450 l 1
 291 545 l 1
EndSplineSet
Layer: 2
SplineSet
19 187 m 1
 50 238 104 269 160 269 c 0
 236 269 296 209 296 126 c 0
 296 43 244 -17 173 -17 c 0
 68 -17 10 92 10 242 c 0
 10 402.92578125 110.36328125 520.046875 275 521 c 1
 276 486 l 1
 132.15625 486 47 383.46484375 47 242 c 0
 47 113 90 19 172 19 c 0
 222 19 259 64 259 126 c 0
 259 188 215 233 158 233 c 0
 101 233 65 199 36 165 c 1
 19 187 l 1
508 1 m 1
 508 486 l 1
 276 486 l 1
 271 521 l 1
 644 521 l 1
 644 486 l 1
 544 486 l 1
 544 1 l 1
 508 1 l 1
EndSplineSet
EndChar

StartChar: tml_Ee
Encoding: 10 2959 1
Width: 680
Flags: HMW
HStem: -18 36 0 21G<443 548 443 443 548 548> 232 36 485 35
VStem: -7 37 242 37 491 36
LayerCount: 3
Back
Fore
SplineSet
35 239 m 256
 35 417.046875 139.021484375 543.703125 292 545 c 256
 295 450 l 256
 192.323242188 450 134 366.071289062 134 248 c 256
 134 154 152 66 221 66 c 256
 267 66 282 128 282 160 c 256
 282 206 261 251 216 251 c 256
 172 251 137 221 120 196 c 257
 109.874023438 218.708007812 96.0810546875 250.600585938 85 278 c 257
 116 315 163 345 220 345 c 256
 331 345 382 249 382 160 c 256
 382 52 321 -24 222 -24 c 256
 106 -24 35 87 35 239 c 256
231 -163 m 5
 453 42 l 5
 558 0 l 5x7e
 303 -236 l 5
 231 -163 l 5
287 545 m 1
 645 545 l 5
 645 450 l 5
 558 450 l 5
 558 0 l 5
 453 0 l 5
 453 450 l 5
 292 450 l 1
 287 545 l 1
EndSplineSet
Layer: 2
SplineSet
527 0 m 1
 295 -221 l 1
 272 -197 l 1
 491 15 l 1
 527 0 l 1
EndSplineSet
Refer: 0 2958 N 1 0 0 1 -41 -1 2
EndChar

StartChar: tml_Ii
Encoding: 6 2952 2
Width: 602
Flags: HMW
HStem: 0 21G<-12 93 -12 -12 274 274 274 379> 485 35
VStem: 108 36 413 36
LayerCount: 3
Back
Fore
SplineSet
60 0 m 1
 60 551 l 1
 547 551 l 1
 547 456 l 1
 417 456 l 1
 417 0 l 1
 312 0 l 1
 312 456 l 1
 165 456 l 1
 165 0 l 1
 60 0 l 1
182.400390625 278 m 0
 182.400390625 308.400390625 208.049804688 335 239.400390625 335 c 0
 269.799804688 335 295.450195312 308.400390625 295.450195312 278 c 0
 295.450195312 247.599609375 269.799804688 221 239.400390625 221 c 0
 208.049804688 221 182.400390625 247.599609375 182.400390625 278 c 0
433.549804688 278 m 0
 433.549804688 308.400390625 459.200195312 335 489.599609375 335 c 0
 520.950195312 335 546.599609375 308.400390625 546.599609375 278 c 0
 546.599609375 247.599609375 520.950195312 221 489.599609375 221 c 0
 459.200195312 221 433.549804688 247.599609375 433.549804688 278 c 0
EndSplineSet
Layer: 2
SplineSet
282.5 243.69921875 m 0
 264.5 243.69921875 249.19921875 259 249.19921875 277 c 0
 249.19921875 295 264.5 310.30078125 282.5 310.30078125 c 0
 300.5 310.30078125 315.80078125 295 315.80078125 277 c 0
 315.80078125 259 300.5 243.69921875 282.5 243.69921875 c 0
507.5 243.69921875 m 0
 489.5 243.69921875 474.19921875 259 474.19921875 277 c 0
 474.19921875 295 489.5 310.30078125 507.5 310.30078125 c 0
 525.5 310.30078125 540.80078125 295 540.80078125 277 c 0
 540.80078125 259 525.5 243.69921875 507.5 243.69921875 c 0
70 0 m 1
 71 520 l 1
 572 520 l 1
 572 485 l 1
 411.93359375 485 l 1
 411 0 l 1
 375 0 l 1
 376 485 l 1
 107 485 l 1
 106 0 l 1
 70 0 l 1
EndSplineSet
EndChar

StartChar: tml_Lla
Encoding: 31 2995 3
Width: 878
Flags: HMW
HStem: -17 36 0 21G 233 36 485 35 499 36
VStem: 23 37 272 37 424 35 698 36
LayerCount: 3
Back
Fore
SplineSet
46 239 m 256
 46 437 129 554.07421875 282 555 c 256
 427.04296875 555.877929688 499.056640625 416.381835938 498.749023438 232 c 0
 424.342773438 242 l 0
 423.139648438 366.848632812 372.490234375 461 282 461 c 256
 181 461 139 367 139 249 c 256
 139 155 158 72 227 72 c 256
 275 72 282 124 282 156 c 256
 282 213 252 240 222 240 c 256
 152 240 128 179 111 154 c 257
 101 177 75 204 64 231 c 257
 95 268 137 340 227 340 c 256
 304 340 387 289 387 153 c 256
 387 45 334 -24 226 -24 c 256
 110 -24 46 87 46 239 c 256
424 0 m 1
 424 545 l 1
 853 545 l 1
 853 450 l 1
 753 450 l 1
 753 0 l 1
 648 0 l 1
 648 450 l 1
 529 450 l 1
 529 0 l 1
 424 0 l 1
EndSplineSet
Layer: 2
SplineSet
32 187 m 1
 63 238 117 269 173 269 c 0
 249 269 309 209 309 126 c 0
 309 43 257 -17 186 -17 c 0
 81 -17 23 92 23 242 c 0
 23 411 104 534 238 535 c 0
 377.62890625 536.04296875 461.0078125 417 459 251 c 1
 424 257 l 1
 424 397.515625 356.63671875 499 239 499 c 0
 127 499 60 391 60 242 c 0
 60 113 103 19 185 19 c 0
 235 19 272 64 272 126 c 0
 272 188 228 233 171 233 c 0
 114 233 78 199 49 165 c 1
 32 187 l 1
459 0 m 1
 423 0 l 1
 424 520 l 1
 855 520 l 1
 855 485 l 1
 734.93359375 485 l 1
 734 0 l 1
 698 0 l 1
 699 485 l 1
 460 485 l 1
 459 0 l 1
EndSplineSet
EndChar

StartChar: tml_Day
Encoding: 65 3059 4
Width: 635
Flags: HMWO
AnchorPoint: "tml_virama" 402 1 basechar 0
LayerCount: 3
Back
SplineSet
273 562 m 260
 120.01953125 561.010742188 35 418.046875 35 240 c 260
 35 88 93 -23 209 -23 c 260
 297 -23 357 48 357 156 c 260
 357 245 312 329 210 329 c 260
 157 329 103 292 73 250 c 261
 106 169 l 261
 123 194 146 238 201 238 c 260
 236 238 264 202 264 156 c 260
 264 124 245 72 207 72 c 260
 142 72 126 155 126 249 c 260
 126 373.071289062 172.323242188 469 276 469 c 260
 354.255859375 469 421.501953125 391.172851562 421.580078125 283 c 4
 421.649414062 187.12890625 399 115 375 82 c 261
 376 0 l 261
 611 0 l 261
 610 95 l 261
 486 95 l 261
 486 95 519.91015625 165.095703125 520 278 c 4
 520.107421875 413.599609375 438.331054688 563.069335938 273 562 c 260
EndSplineSet
Fore
SplineSet
36 239 m 256
 36 437 125.999924544 554.073906791 279 555 c 256
 424.04296875 555.877929688 521.056640625 427.381835938 520.749023438 243 c 0
 520.5390625 117.287109375 491.958984375 74.583984375 483 48.03515625 c 256
 396 79 l 256
 396 79.34375 423.447736168 127.378913501 422.343208503 241.999994828 c 0
 421.140127064 366.848380044 369.490234375 461 279 461 c 256
 178 461 129 367 129 249 c 256
 129 155 148 72 217 72 c 256
 265 72 272 124 272 156 c 256
 272 213 242 244 212 244 c 256
 142 244 118 179 101 154 c 257
 54 231 l 257
 78 268 127 344 217 344 c 256
 294 344 377 289 377 153 c 256
 377 45 324 -24 216 -24 c 256
 100 -24 36 87 36 239 c 256
396 79 m 257
 493 95 l 257
 611 95 l 261
 611 0 l 261
 397 0 l 257
 396 79 l 257
EndSplineSet
Layer: 2
SplineSet
193 233 m 1
 136 233 100 199 71 165 c 1
 54 187 l 1
 85 238 139 269 195 269 c 0
 271 269 331 209 331 126 c 0
 331 43 279 -17 208 -17 c 0
 103 -17 45 92 45 242 c 0
 45 411 134 534 280 535 c 0
 427.6328125 535.953125 516.01171875 422.3984375 514.00390625 263.99609375 c 0
 514.00390625 212.046875 505.87109375 115.5703125 453.00390625 34.99609375 c 1
 659.00390625 34.99609375 l 1
 659.00390625 -0.00390625 l 1
 408.00390625 -0.00390625 l 1
 408.00390625 32.99609375 l 1
 463.00390625 102.93359375 476.00390625 200.41796875 476.00390625 263.99609375 c 0
 476.00390625 400.44921875 404.00390625 498.99609375 281.00390625 498.99609375 c 0
 156.00390625 498.99609375 82.00390625 390.99609375 82.00390625 241.99609375 c 0
 82.00390625 112.99609375 125.00390625 18.99609375 207.00390625 18.99609375 c 0
 257.00390625 18.99609375 294.00390625 63.99609375 294.00390625 125.99609375 c 0
 294.00390625 187.99609375 250.00390625 232.99609375 193.00390625 232.99609375 c 1
 193 233 l 1
EndSplineSet
EndChar

StartChar: tml_Pa
Encoding: 25 2986 5
Width: 511
Flags: HMW
HStem: 0 35
VStem: 50 36 435 36
AnchorPoint: "tml_virama" 266 0 basechar 0
LayerCount: 3
Back
Fore
SplineSet
70 0 m 1
 70 543 l 1
 175 543 l 1
 175 100 l 1
 346 100 l 1
 346 543 l 1
 451 543 l 1
 451 0 l 1
 70 0 l 1
EndSplineSet
Layer: 2
SplineSet
435 520 m 1
 471 520 l 1
 471 0 l 1
 50 0 l 1
 50 520 l 1
 86 520 l 1
 86 35 l 1
 435 35 l 1
 435 520 l 1
EndSplineSet
EndChar

StartChar: tml_Ra
Encoding: 28 2992 6
Width: 498
Flags: HMW
HStem: 0 21G<-3 102 -3 -3 283 283 283 388 388 388> 485 35
VStem: 7 36 313 36
AnchorPoint: "tml_virama" 210 0 basechar 0
LayerCount: 3
Back
Fore
SplineSet
58 0 m 1
 58 551 l 1
 487 551 l 1
 487 456 l 1
 387 456 l 1
 387 0 l 1
 282 0 l 1
 282 456 l 1
 163 456 l 1
 163 0 l 1
 58 0 l 1
69 -170 m 1
 284 32 l 1
 388 0 l 1
 133 -236 l 1
 69 -170 l 1
EndSplineSet
Layer: 2
SplineSet
348 0 m 1
 116 -221 l 1
 93 -197 l 1
 312 15 l 1
 348 0 l 1
43 0 m 1
 7 0 l 1
 8 520 l 1
 449 520 l 1
 449 485 l 1
 348.93359375 485 l 1
 348 0 l 1
 312 0 l 1
 313 485 l 1
 44 485 l 1
 43 0 l 1
EndSplineSet
EndChar

StartChar: tml_Tta
Encoding: 20 2975 7
Width: 663
Flags: HMW
HStem: 0 35
VStem: 60 36
AnchorPoint: "tml_virama" 346 0 basechar 0
LayerCount: 3
Back
Fore
SplineSet
60 0 m 1
 60 544 l 1
 165 544 l 1
 165 103 l 1
 633 103 l 1
 633 0 l 1
 60 0 l 1
EndSplineSet
Layer: 2
SplineSet
663 35 m 1
 663 0 l 1
 60 0 l 1
 60 520 l 1
 96 520 l 1
 96 35 l 1
 663 35 l 1
EndSplineSet
EndChar

StartChar: tml_Va
Encoding: 33 2997 8
Width: 768
Flags: HMW
AnchorPoint: "tml_virama" 426 1 basechar 0
LayerCount: 3
Back
SplineSet
84 216 m 5x7f
 124 132 l 5
 140 165 176 192 215 192 c 4
 251 192 279 169 279 130 c 4
 279 96 253 80 226 80 c 4
 166 80 147 148 147 242 c 4
 147 354 203 438 301 438 c 4
 402 438 457 351 457 251 c 4
 457 199 439 137 411 93 c 5
 411 0 l 5
 747 0 l 5
 747 521 l 5
 642 521 l 5
 642 103 l 5
 531 103 l 5
 551 143 561 202 561 249 c 4
 563 420 464 542 297 541 c 4
 141 540 46 410 46 240 c 4
 46 88 110 -23 226 -23 c 4
 323 -23 378 40 378 126 c 4
 378 235 305 289 221 289 c 4
 164 289 112 256 84 216 c 5x7f
EndSplineSet
Fore
SplineSet
36 239 m 260
 36 437 125.999924544 554.073906791 279 555 c 260
 424.04296875 555.877929688 521.056640625 427.381835938 520.749023438 243 c 4
 520.5390625 117.287109375 491.958984375 74.583984375 483 48.03515625 c 260
 396 79 l 260
 396 79.34375 423.447736168 127.378913501 422.343208503 241.999994828 c 4
 421.140127064 366.848380044 369.490234375 461 279 461 c 260
 178 461 129 367 129 249 c 260
 129 155 148 72 217 72 c 260
 265 72 272 124 272 156 c 260
 272 213 242 244 212 244 c 260
 142 244 118 179 101 154 c 261
 54 231 l 261
 78 268 127 344 217 344 c 260
 294 344 377 289 377 153 c 260
 377 45 324 -24 216 -24 c 260
 100 -24 36 87 36 239 c 260
396 79 m 261
 493 95 l 261
 603 95 l 261
 603 545 l 261
 708 545 l 261
 708 0 l 261
 397 0 l 261
 396 79 l 261
EndSplineSet
Layer: 2
SplineSet
47 240 m 260
 47 418.046875 118.022460938 560.612304688 271 562 c 260
 428.381835938 563.427734375 491.0546875 415.774414062 489 176 c 260
 423 216 l 260
 423 358.075195312 369.5546875 464 275 464 c 260
 188.323242188 464 138 367.071289062 138 249 c 260
 138 155 154 72 219 72 c 260
 257 72 276 124 276 156 c 260
 276 202 248 238 213 238 c 260
 158 238 135 194 118 169 c 261
 85 250 l 261
 115 292 167 329 216 329 c 260
 327 329 369 245 369 156 c 260
 369 48 309 -23 221 -23 c 260
 105 -23 47 88 47 240 c 260
EndSplineSet
EndChar

StartChar: tml_MatraAa
Encoding: 38 3006 9
Width: 486
Flags: HMW
HStem: 0 21G<-12 93 -12 -12 274 274 274 379> 485 35
VStem: 108 36 413 36
LayerCount: 3
Back
Fore
SplineSet
50 0 m 1
 50 545 l 5
 479 545 l 5
 479 450 l 5
 379 450 l 5
 379 0 l 1
 274 0 l 1
 274 450 l 5
 155 450 l 5
 155 0 l 1
 50 0 l 1
EndSplineSet
Layer: 2
SplineSet
144 0 m 1
 108 0 l 1
 109 520 l 1
 550 520 l 1
 550 485 l 1
 449.93359375 485 l 1
 449 0 l 1
 413 0 l 1
 414 485 l 1
 145 485 l 1
 144 0 l 1
EndSplineSet
EndChar

StartChar: tml_Seven
Encoding: 59 3053 10
Width: 606
Flags: HMW
HStem: 0 21G<-26 79 -26 -26 260 260 260 365> 485 35
VStem: 94 36 399 36
LayerCount: 3
Back
Fore
SplineSet
36 239 m 256
 36 417.046875 140.021484375 543.703125 293 545 c 256
 296 450 l 256
 193.323242188 450 135 366.071289062 135 248 c 256
 135 154 153 66 222 66 c 256
 268 66 283 128 283 160 c 256
 283 206 262 251 217 251 c 256
 173 251 138 221 121 196 c 257
 110.874023438 218.708007812 97.0810546875 250.600585938 86 278 c 257
 117 315 164 345 221 345 c 256
 332 345 383 249 383 160 c 256
 383 52 322 -24 223 -24 c 256
 107 -24 36 87 36 239 c 256
291 545 m 1
 546 545 l 1
 546 450 l 1
 546 450 l 1
 546 0 l 1
 441 0 l 1x3e
 441 450 l 1
 289 450 l 1
 291 545 l 1
EndSplineSet
Layer: 2
SplineSet
294 521 m 1
 295 486 l 1
 151.15625 486 66 383.46484375 66 242 c 0
 66 113 109 19 191 19 c 0
 241 19 278 64 278 126 c 0
 278 188 234 233 177 233 c 0
 120 233 84 199 55 165 c 1
 38 187 l 1
 69 238 123 269 179 269 c 0
 255 269 315 209 315 126 c 0
 315 43 263 -17 192 -17 c 0
 87 -17 29 92 29 242 c 0
 29 402.92578125 129.36328125 520.046875 294 521 c 1
553 521 m 1
 290 521 l 1
 295 486 l 1
 553 486 l 1
 553 521 l 1
563 1 m 1
 527 1 l 1
 527 521 l 1
 563 521 l 1
 563 1 l 1
EndSplineSet
EndChar

StartChar: uni0031
Encoding: 256 49 11
Width: 279
Flags: HW
HStem: 0 21G<124 229>
VStem: 124 105<0 377>
LayerCount: 3
Back
Fore
SplineSet
19.5 555 m 5
 229 609 l 1
 229 609 l 1
 229 0 l 1
 124 0 l 1
 124 464 l 1
 19 435 l 1
 19.5 555 l 5
EndSplineSet
Layer: 2
EndChar

StartChar: uni0032
Encoding: 257 50 12
Width: 459
VWidth: 0
Flags: HW
HStem: -17 36 0 35 233 36 499 36
VStem: 49 37 298 37 480 38
LayerCount: 3
Back
SplineSet
388 352 m 4
 376.922851562 213 236 108 101 35 c 5
 421 35 l 5
 421 0 l 5
 31 0 l 5
 31 33 l 5
 162 102 342 222 353 352 c 4
 364.008789062 482.104492188 304.9609375 561.46484375 215 562 c 4
 105.984375 562.6484375 69 477.0390625 55 437 c 5
 24 449 l 5
 46 526 119.888671875 597 214 597 c 4
 325 597 399.999023438 503.43359375 388 352 c 4
EndSplineSet
Fore
SplineSet
21 466 m 5
 42.8837890625 543 116.383789062 614 210 614 c 4
 343.974344338 614 440.525192472 514.617859253 419.791992188 336.005859375 c 0
 401.759765625 219.426757812 312 140 242 103 c 1
 439 103 l 1
 439 0 l 1
 31 0 l 1
 31 93 l 1
 200.763671875 186.9765625 305.438476562 264.999023438 313.956054688 359.1796875 c 0
 322.004913713 455.590620043 271.102144671 506.447163508 217 507 c 4
 145.459960938 507.6875 121.1875 451.9453125 112 426 c 5
 21 466 l 5
EndSplineSet
Layer: 2
EndChar

StartChar: NameMe.13
Encoding: 258 -1 13
Width: 533
VWidth: 0
Flags: HW
LayerCount: 3
Back
Fore
SplineSet
25 252.395507812 m 4
 25 395.890625 104.823242188 471.313476562 195.131835938 471.313476562 c 4
 228 471.313476562 251.494140625 461.571289062 274.865234375 445.2578125 c 5
 237 345 l 5
 211 360 169.704101562 369.712890625 147.466796875 320.267578125 c 4
 139.833984375 303.295898438 135 280.557617188 135 252.395507812 c 4
 135 168.212890625 190.606445312 115.115234375 244.145507812 115.115234375 c 4
 349.255859375 115.115234375 388.883789062 244.619140625 388.883789062 377.395507812 c 4
 388.883789062 510.4375 350.513671875 639.66796875 247.71484375 639.66796875 c 4
 180.079101562 639.66796875 147.517578125 588.380859375 137.842773438 550.754882812 c 4
 136.473632812 545.430664062 l 5
 30.373046875 583.720703125 l 5
 31.9365234375 588.359375 l 4
 57.4130859375 663.9140625 112.784179688 754.783203125 247.71484375 754.783203125 c 4
 482.872070312 754.783203125 503 488.815429688 503 377.395507812 c 4
 503 265.669921875 479.32421875 0 244.145507812 0 c 4
 92.2744140625 0 25 136.287109375 25 252.395507812 c 4
EndSplineSet
Layer: 2
EndChar

StartChar: tml_A
Encoding: 3 2949 14
Width: 825
VWidth: 0
Flags: HW
HStem: -134 36<166.706 355.432> 160 35<141.354 678> 298 35<219.933 321.795> 492 37<228.107 385.381>
VStem: 155 37<359.354 458.575> 524 37<84.4743 308.835> 670 36<-129 160 195 521> 670 8<160 195>
LayerCount: 3
Back
Fore
SplineSet
660 -129 m 257
 660 545 l 257
 765 545 l 257
 765 -129 l 257xfe
 660 -129 l 257
30 67 m 256
 29 167 90 235 206 235 c 258
 678 235 l 257
 678 135 l 257xfd
 209 135 l 258
 158 135 128 104 127 70 c 256
 126 -18 215 -38 278 -38 c 256
 372 -38 468 50 469 178 c 0
 470 306 415 459 285 461 c 0
 250.004141277 461.538397827 227 436 227 405 c 0
 227 380 244 359 277 359 c 0
 344 358 339 450 334 515 c 257
 417 502 l 257
 432 391 405 271 273 270 c 0
 183 269 125 323 124 403 c 0
 123 483 184.001090227 556.462259008 282 556 c 0
 494 555 571 354 572 176 c 0
 573 -2 443 -134 278 -134 c 256
 114 -134 30 -49 30 67 c 256
EndSplineSet
Layer: 2
EndChar

StartChar: tml_Aa
Encoding: 4 2950 15
Width: 1064
VWidth: 0
Flags: HMW
HStem: -134 36<166.706 355.432> 160 35<141.354 678> 298 35<219.933 321.795> 492 37<228.107 385.381>
LayerCount: 3
Back
SplineSet
66 166 m 1053
672 -127 m 5,1,2
 669.898762056 37.6587293597 720.333786577 124 818 124 c 4,3,4
 936.338904003 124 974 5.81436642454 974 -110 c 4,5,6
 974 -256.871715638 904.932542883 -348.613153704 788 -361 c 4,7,8
 683.227361592 -370.4156985 559.644233306 -344.111268303 533 -130 c 5,9,-1
 568 -124 l 5,10,11
 587.268394349 -276.3 656.165624201 -337.126614506 785 -327 c 4,12,13
 892.044311767 -317.610601991 940 -218.253048336 940 -114 c 4,14,15
 940 -4 908.744680851 90 819 90 c 4,16,17
 714.988052569 90 706.049762019 -29.5947615518 705 -130 c 5,18,-1
 672 -127 l 5,1,2
706 -129 m 261,0,-1
 670 -129 l 261,1,-1
 670 521 l 261,2,-1
 706 521 l 261,3,-1
 706 -129 l 261,0,-1
524 176 m 4,4,5
 525.926231568 318.453500224 458.301712548 488.950718588 276 492 c 4,6,7
 227.976127932 492.803274409 180.956044098 458.580220097 182 408 c 4,8,9
 182.82 368.27056277 208.431924759 333.888631761 264 333 c 4,10,11
 336.663770951 331.837977842 353.444444445 425.242774567 348 491 c 261,12,-1
 380 485 l 261,13,14
 391.582481846 393.842857143 356.857497232 298.905023395 267 298 c 4,15,16
 190.041209717 297.224889321 145.897083579 345.391041922 145 408 c 4,17,18
 144.014925373 476.75 208.030746123 528.688737877 276 529 c 4,19,20
 481.555766621 529.941333333 560.038676027 341.726080949 561 176 c 4,21,22
 562.031141868 -1.76223776224 424.432525952 -134 275 -134 c 260,23,24
 112.066123188 -134 38.7097034903 -65.2188987962 30 27 c 260,25,26
 19.3825103778 139.418660639 102.328767123 215 206 215 c 262,27,-1
 678 215 l 261,28,-1
 678 180 l 261,29,-1
 209 180 l 262,30,31
 120.084611525 180 54.4377352222 108.227500455 67 27 c 260,32,33
 82.2429538611 -71.5608139609 191.800174061 -98 276 -98 c 260,34,35
 401.968253968 -98 521.799806012 13.2857448618 524 176 c 4,4,5
EndSplineSet
Fore
SplineSet
660 -129 m 261
 660 550 l 261
 765 550 l 261
 765 -129 l 261xfe
 660 -129 l 261
30 67 m 256
 29.3828125 167.458984375 90.4755859375 235 206 235 c 258
 678 235 l 261
 678 135 l 261xfd
 209 135 l 258
 157.654296875 135 127.479363484 104.166508989 127 70 c 256
 125.766601562 -17.91015625 220.15234375 -39 283 -39 c 256
 376.967773438 -39 466.584792183 48.3195207179 468 176 c 0
 469.4140625 303.577148438 419.798214221 457.123199276 286 459 c 0
 251.259765625 459.487304688 217.407830582 438.713775162 218 408 c 0
 218.490234375 382.573242188 233.792520959 360.568169368 267 360 c 0
 333.608398438 358.860351562 348.991210938 450.491210938 344 515 c 257
 417 502 l 257
 432.375 391.34375 399.279227646 276.138764277 267 275 c 0
 177.423828125 274.228857422 125.825470659 326.265527202 125 394 c 0
 123.864257812 487.193982713 197.653041116 555.627999509 276 556 c 0
 489.489257812 557.013671875 570.928783537 354.401154308 572 176 c 0
 573.067382812 -1.7626953125 440.657226562 -134 276 -134 c 256
 112.401367188 -134 30.7106903604 -48.6783502729 30 67 c 256
503 -138 m 5
 602 -124 l 5
 620.432003277 -236.612648424 671.559829897 -287.277381985 785 -288 c 4
 902.044278913 -288.765219781 940 -187.421833439 940 -91 c 4
 940 -6.3431372549 915.401045752 66 837 66 c 4
 786.134498554 66 765.663007591 30.8012796364 765 6 c 5
 660 -58 l 5
 657.438216754 77.1945227547 731.927493224 174 838 174 c 4
 994.268039902 174 1044 40.6420948793 1044 -94 c 4
 1044 -267.788444401 949.681635264 -391.382421764 789 -391 c 4
 681.720717491 -390.749040178 526.594946665 -362.581249038 503 -138 c 5
EndSplineSet
Layer: 2
EndChar

StartChar: tml_Nnna
Encoding: 24 2985 16
Width: 983
Flags: HMW
AnchorPoint: "tml_virama" 459 0 basechar 0
LayerCount: 3
Back
SplineSet
133 517 m 261xbe
 158.943359375 535.036132812 204.134765625 546 251 546 c 260
 423.1171875 546 559 384.951171875 559 186 c 260
 559 68.1748046875 502.772460938 -17 426 -17 c 260
 340.325195312 -17 293 70.9580078125 293 192 c 260
 293 395.607421875 413.43359375 543.794921875 611 545 c 260
 612 510 l 260
 434.865234375 510 330 376.365234375 330 192 c 260
 330 91.923828125 362.6796875 19 425 19 c 260
 480.747070312 19 522 89.2333984375 522 186 c 260
 522 363.73828125 403.069335938 510 249 510 c 260
 202.74609375 510 173.533203125 502.5 150 495 c 261
 133 517 l 261xbe
-46 187 m 261xbe
 -15 238 39 269 95 269 c 260
 171 269 231 209 231 126 c 260
 231 43 179 -17 108 -17 c 260
 3 -17 -55 92 -55 242 c 260
 -55 386.767578125 60.509765625 543.965820312 250 545 c 260
 251 510 l 260
 82.0302734375 510 -18 367.376953125 -18 242 c 260
 -18 113 25 19 107 19 c 260
 157 19 194 64 194 126 c 260
 194 188 150 233 93 233 c 260
 36 233 0 199 -29 165 c 261
 -46 187 l 261xbe
683 1 m 5x7e
 683 171.715820312 683 343.734375 683 510 c 5
 601 510 l 5
 603 545 l 5
 819 545 l 5
 819 510 l 5
 719 510 l 5
 719 1 l 5
 683 1 l 5x7e
EndSplineSet
Fore
SplineSet
40 239 m 260
 40 477.046875 210.021484375 553.703125 364 555 c 256
 359 461 l 256
 230.323242188 461 139 406.071289062 139 248 c 260
 139 154 158 66 227 66 c 256
 273 66 288 128 288 160 c 256
 288 206 266 251 221 251 c 256
 177 251 142 221 125 196 c 257
 114.874023438 218.708007812 101.081054688 243.600585938 90 271 c 257
 121 308 168 345 225 345 c 256
 336 345 387 249 387 160 c 256
 387 52 326 -24 227 -24 c 256
 111 -24 40 87 40 239 c 260
744 450 m 257
 579.856445312 450 512 325.591796875 512 204 c 256
 512 133.209960938 533.189453125 66 568 66 c 256
 597.830078125 66 617 130.090820312 617 197 c 260
 617 388.741210938 464.015625 459.764648438 356 461 c 256
 355 555 l 256
 535.4296875 553.850585938 716 426.899414062 716 196 c 256
 716 69.283203125 657 -23 569 -23 c 256
 465.888671875 -23 414 71.3388671875 414 206 c 256
 414 381.654296875 509.6171875 543.872070312 766 545 c 257
 963 545 l 1
 963 450 l 1
 876 450 l 1
 876 0 l 1
 771 0 l 1
 771 450 l 1
 744 450 l 257
EndSplineSet
Layer: 2
EndChar

StartChar: tml_Nna
Encoding: 21 2979 17
Width: 1295
Flags: HW
HStem: -17 36<57.421 159.433> 1 21G<447 483> 233 36<32.148 153.159> 486 35<123.872 447 483 583>
VStem: -51 37<115.107 346.148> 198 37<58.919 187.892> 447 36<1 486>
AnchorPoint: "tml_virama" 500 0 basechar 0
LayerCount: 3
Back
Fore
SplineSet
936 196 m 256
 936 415.900390625 776.204101562 460 713 460 c 256
 536.856445312 460 502 293.591796875 502 206 c 256
 502 135.209960938 517.189453125 66 552 66 c 256
 581.830078125 66 602 128.090820312 602 195 c 256
 602 377.741210938 487.015625 458.764648438 345 460 c 256
 344 555 l 256
 544.4296875 553.850585938 703 427.899414062 703 196 c 256
 703 69.283203125 640 -23 552 -23 c 256
 448.888671875 -23 401 71.3388671875 401 206 c 256
 401 361.654296875 494.6171875 553.872070312 707 555 c 257
 830.126953125 554.892578125 1035.42578125 479.662109375 1037 197 c 256
 1037.70605469 70.28515625 974 -22 886 -22 c 256
 782.888671875 -22 735 72.3388671875 735 207 c 256
 735 362.654296875 856.6171875 544.872070312 1049 546 c 257
 1270 546 l 1
 1270 451 l 1
 1183 451 l 1
 1183 1 l 1
 1078 1 l 1
 1078 451 l 1
 1063 451 l 257
 906.856445312 451 836 294.591796875 836 207 c 256
 836 136.209960938 851.189453125 67 886 67 c 256
 915.830078125 67 936 129.090820312 936 196 c 256
36 239 m 256
 36 460.046875 200.021484375 553.703125 344 555 c 256
 348 460 l 256
 219.323242188 460 135 366.071289062 135 248 c 256
 135 154 154 66 223 66 c 256
 269 66 283 128 283 160 c 256
 283 206 262 251 217 251 c 256
 173 251 138 221 121 196 c 257
 110.874023438 218.708007812 97.0810546875 243.600585938 86 271 c 257
 117 308 164 345 221 345 c 256
 332 345 383 249 383 160 c 256
 383 52 322 -24 223 -24 c 256
 107 -24 36 87 36 239 c 256
EndSplineSet
Layer: 2
EndChar

StartChar: tml_Ma
Encoding: 26 2990 19
Width: 693
VWidth: 0
Flags: HW
HStem: 0 35<105 554.505> 520 35<417.08 566.865>
VStem: 70 35<35 545> 327 35<7 463.14> 638 36<129.31 428.88>
AnchorPoint: "tml_virama" 326 0 basechar 0
LayerCount: 3
Back
Fore
SplineSet
489 0 m 261
 456 95 l 261
 509.826171875 94.0146484375 526.095703125 161.565429688 526 251 c 260
 525.899414062 348.165039062 491.703125 474 407 474 c 260
 373.786132812 474 374 439.891601562 374 378 c 260
 376 6 l 261
 277 7 l 260
 275 422 l 260
 275 518.875976562 305.973632812 569.502929688 406 570 c 260
 556.151367188 570.868164062 621.865234375 396.999023438 623 251 c 260
 624.401367188 78.625 580.383789062 0.30859375 489 0 c 261
60 0 m 257
 60 545 l 257
 165 545 l 257
 165 95 l 257
 463 95 l 261
 493 0 l 261
 60 0 l 257
EndSplineSet
Layer: 2
EndChar

StartChar: tml_Virama
Encoding: 49 3021 20
Width: 0
VWidth: 0
Flags: HW
HStem: 658 48<-23.9284 23.9284>
VStem: -24 48<658.072 705.928>
AnchorPoint: "tml_virama" 0 0 mark 0
LayerCount: 3
Back
Fore
SplineSet
-60.8408203125 682 m 0
 -60.8408203125 714.955444336 -32.955444336 742.840820312 0 742.840820312 c 0
 32.955444336 742.840820312 60.8408203125 714.955444336 60.8408203125 682 c 0
 60.8408203125 649.044555664 32.955444336 621.159179688 0 621.159179688 c 0
 -32.955444336 621.159179688 -60.8408203125 649.044555664 -60.8408203125 682 c 0
EndSplineSet
Layer: 2
EndChar

StartChar: tml_I
Encoding: 5 2951 21
Width: 0
Flags: W
LayerCount: 3
Back
SplineSet
327 332 m 1
 327 308 334.166666667 287.666666667 348.5 271 c 128
 362.833333333 254.333333333 380.333333333 246 401 246 c 256
 421.666666667 246 439.166666667 254.333333333 453.5 271 c 128
 467.833333333 287.666666667 475 308 475 332 c 256
 475 356 467.666666667 376.333333333 453 393 c 128
 438.333333333 409.666666667 421 418 401 418 c 0
 380.333333333 418 362.833333333 409.666666667 348.5 393 c 128
 334.166666667 376.333333333 327 356 327 332 c 1
 327 332 l 1
7 -172 m 1
 7 -132.666666667 20.3333333333 -95.3333333333 47 -60 c 128
 73.6666666667 -24.6666666667 109.666666667 3.66666666667 155 25 c 1
 127 74.3333333333 105.666666667 126 91 180 c 128
 76.3333333333 234 69 288.666666667 69 344 c 0
 69 469.333333333 112.166666667 576.5 198.5 665.5 c 128
 284.833333333 754.5 389 799 511 799 c 0
 619.666666667 799 712.5 758.166666667 789.5 676.5 c 128
 866.5 594.833333333 905 496.333333333 905 381 c 2
 905 0 l 1
 843 0 l 1
 843 381 l 2
 843 482.333333333 810.666666667 569.166666667 746 641.5 c 128
 681.333333333 713.833333333 603 750 511 750 c 0
 406.333333333 750 316.666666667 710.5 242 631.5 c 128
 167.333333333 552.5 130 456.666666667 130 344 c 0
 130 293.333333333 136.333333333 244 149 196 c 128
 161.666666667 148 180 103 204 61 c 1
 239.333333333 81.6666666667 279.666666667 97.1666666667 325 107.5 c 128
 370.333333333 117.833333333 420.333333333 123 475 123 c 0
 497 123 519.5 121 542.5 117 c 128
 565.5 113 588 106.666666667 610 98 c 1
 616 120.666666667 620.5 145.5 623.5 172.5 c 128
 626.5 199.5 628 228 628 258 c 0
 628 312 613 358.333333333 583 397 c 128
 553 435.666666667 517 455 475 455 c 2
 438 455 l 1
 464 445.666666667 484.833333333 429.833333333 500.5 407.5 c 128
 516.166666667 385.166666667 524 360 524 332 c 0
 524 294 511.833333333 262 487.5 236 c 128
 463.166666667 210 434.333333333 197 401 197 c 256
 367.666666667 197 338.833333333 210 314.5 236 c 128
 290.166666667 262 278 294 278 332 c 0
 278 379.333333333 297.166666667 419.833333333 335.5 453.5 c 128
 373.833333333 487.166666667 420.333333333 504 475 504 c 0
 532.333333333 504 581.333333333 480 622 432 c 128
 662.666666667 384 683 326 683 258 c 0
 683 223.333333333 681 191.5 677 162.5 c 128
 673 133.5 667 108 659 86 c 1
 710.333333333 67.3333333333 751.833333333 35.5 783.5 -9.5 c 128
 815.166666667 -54.5 831 -104.666666667 831 -160 c 0
 831 -200.666666667 814.166666667 -235.333333333 780.5 -264 c 128
 746.833333333 -292.666666667 706.333333333 -307 659 -307 c 0
 613 -307 568.666666667 -299.666666667 526 -285 c 128
 483.333333333 -270.333333333 445.666666667 -249 413 -221 c 1
 380.333333333 -249 340.666666667 -270.333333333 294 -285 c 128
 247.333333333 -299.666666667 197 -307 143 -307 c 0
 105 -307 72.8333333333 -294 46.5 -268 c 128
 20.1666666667 -242 7 -210 7 -172 c 1
 7 -172 l 1
69 -172 m 1
 69 -196 76.1666666667 -216.333333333 90.5 -233 c 128
 104.833333333 -249.666666667 122.333333333 -258 143 -258 c 0
 181.666666667 -258 219.333333333 -252.333333333 256 -241 c 128
 292.666666667 -229.666666667 326.666666667 -213 358 -191 c 1
 316 -161.666666667 280 -132 250 -102 c 128
 220 -72 196.333333333 -42 179 -12 c 1
 145.666666667 -29.3333333333 119 -52.3333333333 99 -81 c 128
 79 -109.666666667 69 -140 69 -172 c 1
 69 -172 l 1
241 12 m 1
 259.666666667 -20.6666666667 283.5 -51.1666666667 312.5 -79.5 c 128
 341.5 -107.833333333 375 -132.666666667 413 -154 c 1
 455.666666667 -124 491.666666667 -91.6666666667 521 -57 c 128
 550.333333333 -22.3333333333 571.666666667 13 585 49 c 1
 563 57 542.5 63.1666666667 523.5 67.5 c 128
 504.5 71.8333333333 488.333333333 74 475 74 c 0
 433 74 392.333333333 68.8333333333 353 58.5 c 128
 313.666666667 48.1666666667 276.333333333 32.6666666667 241 12 c 1
 241 12 l 1
462 -191 m 1
 500.666666667 -213 536.666666667 -229.666666667 570 -241 c 128
 603.333333333 -252.333333333 633 -258 659 -258 c 0
 689 -258 715 -248.333333333 737 -229 c 128
 759 -209.666666667 770 -186.666666667 770 -160 c 0
 770 -116 757.666666667 -75.8333333333 733 -39.5 c 128
 708.333333333 -3.16666666667 675.333333333 22.3333333333 634 37 c 1
 616.666666667 -9.66666666667 593.5 -52.5 564.5 -91.5 c 128
 535.5 -130.5 501.333333333 -163.666666667 462 -191 c 1
 462 -191 l 1
EndSplineSet
Fore
Layer: 2
EndChar

StartChar: tml_Nya
Encoding: 19 2974 32
Width: 1156
Flags: HW
HStem: 0 21G<32 137 32 32 318 318 318 423> 485 35
VStem: 152 36 457 36
LayerCount: 3
Back
SplineSet
62.3232421875 242 m 4x9fe0
 61.931640625 333.450195312 86.8388671875 428.994140625 144.5 531.002929688 c 5
 174.5 517 l 5
 118.546875 421.079101562 95.7041015625 332.50390625 95.75 244 c 4
 95.9228515625 -82.755859375 310.9921875 -200.700195312 576.5 -198 c 4
 834.793945312 -195.408203125 950.5 -26.455078125 950.5 138 c 4
 950.5 225.352539062 924.411132812 300 849.5 300 c 4
 758.047851562 300 739.522460938 193.452148438 738.5 104 c 5
 705.5 107 l 5
 703.44140625 255.915039062 762.703125 334 848.5 334 c 4
 951.666992188 334 984.5 237.02734375 984.5 142 c 4
 984.5 -76.259765625 835.19921875 -222.078125 582.5 -231 c 4
 416.895507812 -236.846679688 64.1865234375 -193.282226562 62.3232421875 242 c 4x9fe0
228.5 242 m 260
 228.5 416.767578125 328.861328125 543.965820312 493.5 545 c 260
 494.5 510 l 260
 350.65625 510 265.5 397.376953125 265.5 242 c 260
 265.5 113 308.5 19 390.5 19 c 260
 440.5 19 477.5 64 477.5 126 c 260
 477.5 188 433.5 233 376.5 233 c 260
 319.5 233 283.5 199 254.5 165 c 261
 237.5 187 l 261
 268.5 238 322.5 269 378.5 269 c 260
 454.5 269 514.5 209 514.5 126 c 260
 514.5 43 462.5 -17 391.5 -17 c 260xdfe0
 286.5 -17 228.5 92 228.5 242 c 260
489.5 545 m 5
 839.5 545 l 5
 839.5 510 l 5
 739.5 510 l 5
 739.5 1 l 5
 703.5 1 l 5xbfe0
 703.5 510 l 5
 494.5 510 l 5
 489.5 545 l 5
EndSplineSet
Fore
SplineSet
271 239 m 256
 271 417.046875 375.021484375 543.703125 528 545 c 256
 531 450 l 256
 428.323242188 450 370 366.071289062 370 248 c 256
 370 154 388 66 457 66 c 256
 503 66 518 128 518 160 c 256
 518 206 497 251 452 251 c 256
 408 251 373 221 356 196 c 257
 345.874023438 218.708007812 332.081054688 250.600585938 321 278 c 257
 352 315 399 345 456 345 c 256
 567 345 618 249 618 160 c 256
 618 52 557 -24 458 -24 c 256
 342 -24 271 87 271 239 c 256
526 545 m 1
 870 545 l 1
 870 450 l 1
 770 450 l 1
 770 0 l 1
 665 0 l 1x3e
 665 450 l 1
 524 450 l 1
 526 545 l 1
768.419921875 82.71875 m 1
 670.580078125 91.28125 l 1
 657.67578125 173.205078125 689.15234375 241.640625 721.5 287.061523438 c 0
 760.103515625 341.265625 805.228515625 368.057617188 864 366.969726562 c 0
 985.98046875 364.711914062 1046.08691406 253.403320312 1046.43554688 136 c 0
 1047.19344674 -118.081153259 881.876953125 -270.612304688 627 -269.951171875 c 4
 309.484375 -269.192382812 92.28125 -96.8525390625 91.494140625 209 c 0
 91.181640625 347.157226562 135.903320312 454.32421875 186.543945312 547.782226562 c 1
 276 504 l 1
 228.620117188 410.512695312 197.53515625 336.130859375 197.439453125 203 c 0
 197.249023438 -42.998046875 381.08984375 -174.12890625 637 -173.374023438 c 4
 827.323242188 -172.767578125 944.313588811 -60.2144257059 943.87109375 131 c 0
 943.713867188 198.744140625 917.892578125 265.974609375 851 265.752929688 c 0
 810.841796875 265.62109375 767.249023438 230.053710938 768 152 c 0
 768.356445312 130.250976562 768.424804688 106.090820312 768.419921875 82.71875 c 1
EndSplineSet
Layer: 2
EndChar

StartChar: tml_Ssa
Encoding: 35 2999 43
Width: 1038
GlyphClass: 2
Flags: HW
AnchorPoint: "tml_virama" 481 0 basechar 0
LayerCount: 3
Back
SplineSet
744 434 m 17
 744.713867188 500.983398438 714.428710938 521.546875 674 522 c 0
 621.75 522.584960938 596.811523438 475.40234375 597 428 c 0
 597.370117188 335.005859375 669.27734375 266.28125 748 267 c 0
 842.172851562 267.860351562 894 349 894 455 c 0
 930 455 l 0
 930 366 879.112304688 232.014648438 748 232 c 0
 673.974609375 231.9921875 564 290.490234375 564 431 c 0
 564 487.481445312 593.768554688 555.745117188 673 556 c 0
 762.646484375 556.288085938 780.5859375 485.7734375 780 434 c 9
 744 434 l 17
744 -152 m 1
 744 438 l 257
 780 438 l 257
 780 -152 l 257
 744 -152 l 1
48 242 m 256xbf
 48 422.536132812 137 553.9296875 283 555 c 256
 430 556.078125 510.140625 428.688476562 508 251 c 256
 507.41015625 202.00390625 500 111 448 35 c 257
 894 35 l 257
 894 455 l 257
 930 455 l 257
 930 -1 l 257
 403 -1 l 257x7f
 403 33 l 257
 458 99 471 191 471 251 c 256
 471 406.61328125 407 519 284 519 c 256
 159 519 85 402.595703125 85 242 c 256
 85 113 128 19 210 19 c 256
 260 19 297 64 297 126 c 256
 297 188 253 233 196 233 c 256
 139 233 103 199 74 165 c 257
 57 187 l 257
 88 238 142 269 198 269 c 256
 274 269 334 209 334 126 c 256
 334 43 282 -17 211 -17 c 256
 106 -17 48 92 48 242 c 256xbf
EndSplineSet
Fore
SplineSet
45 239 m 256
 45 437 135 554.07421875 288 555 c 256
 433.04296875 555.877929688 530.056640625 427.381835938 529.749023438 243 c 0
 529.5390625 117.287109375 500.958984375 74.583984375 492 48.03515625 c 256
 405 79 l 256
 405 79.34375 432.447265625 127.37890625 431.342773438 242 c 0
 430.139648438 366.848632812 378.490234375 461 288 461 c 256
 187 461 138 367 138 249 c 256
 138 155 157 72 226 72 c 256
 274 72 281 124 281 156 c 256
 281 213 251 240 221 240 c 256
 151 240 127 179 110 154 c 257
 100 177 74 204 63 231 c 257
 94 268 136 340 226 340 c 256
 303 340 386 289 386 153 c 256
 386 45 333 -24 225 -24 c 256
 109 -24 45 87 45 239 c 256
699 384 m 17
 700.713867188 439.983398438 694.443359375 456.775390625 670 457 c 0
 655.772460938 457.130859375 635.591796875 438.401367188 636 396 c 0
 636.4140625 353.004882812 668.28125 283.965820312 755 284 c 0
 859.178710938 284.041015625 872 352 873 448 c 0
 948 445 l 0
 948 315 909.112304688 184.014648438 751 184 c 0
 676.974609375 183.993164062 543.684570312 233.374023438 539 399 c 0
 536.272460938 495.419921875 599.768554688 555.80859375 668 556 c 0
 787.646484375 556.334960938 804.5859375 467.7734375 804 404 c 9
 699 384 l 17
699 -152 m 1
 699 388 l 257
 804 408 l 257
 804 -152 l 257
 699 -152 l 1
510 96 m 257
 873 96 l 257
 873 461 l 257
 978 461 l 257
 978 0 l 257
 405 0 l 257
 405 79 l 257
 510 96 l 257
EndSplineSet
Layer: 2
EndChar

StartChar: dottedcircle
Encoding: 74 9676 113
Width: 761
Flags: W
HStem: -32 64<357.282 402.718> -15 64<261.313 306.233 455.767 501.717> 38 65<176.282 221.233 540.767 585.718> 126 64<125.282 170.748 591.767 636.718> 218 64<109.798 154.718 606.767 652.233> 311 64<125.282 170.748 591.767 636.718> 397 65<176.798 222.233 539.282 585.202> 452 64<261.313 306.233 455.767 501.717> 470 63<357.282 402.718>
VStem: 100 64<226.767 272.202> 116 63<135.282 180.202 320.282 365.718> 167 63<47.2825 93.202 406.282 452.202> 251 64<-5.71777 39.7173 461.282 506.718> 348 64<-23.233 22.7173 478.767 523.202> 447 64<-5.71777 39.7173 461.282 506.718> 532 63<47.2825 93.202 406.282 452.202> 583 63<135.282 180.202 320.282 365.718> 598 63<226.767 272.202>
LayerCount: 3
Back
Fore
SplineSet
412 501 m 4x1c8e
 412 491.666666667 409 484.166666667 403 478.5 c 4
 397 472.833333333 389.333333333 470 380 470 c 260
 370.666666667 470 363 472.833333333 357 478.5 c 4
 351 484.166666667 348 491.666666667 348 501 c 4
 348 509.666666667 351 517.166666667 357 523.5 c 4
 363 529.833333333 370.666666667 533 380 533 c 260
 389.333333333 533 397 529.833333333 403 523.5 c 4
 409 517.166666667 412 509.666666667 412 501 c 4x1c8e
251 484 m 260
 251 493.333333333 254.333333333 501 261 507 c 4
 267.666666667 513 275.333333333 516 284 516 c 4
 293.333333333 516 300.833333333 513 306.5 507 c 4
 312.166666667 501 315 493.333333333 315 484 c 260
 315 474.666666667 312.166666667 467 306.5 461 c 4
 300.833333333 455 293.333333333 452 284 452 c 4x1d0e
 275.333333333 452 267.666666667 455 261 461 c 4
 254.333333333 467 251 474.666666667 251 484 c 260
511 484 m 260
 511 474.666666667 508 467 502 461 c 4
 496 455 488 452 478 452 c 4
 468.666666667 452 461.166666667 455 455.5 461 c 4
 449.833333333 467 447 474.666666667 447 484 c 260
 447 493.333333333 449.833333333 501 455.5 507 c 4
 461.166666667 513 468.666666667 516 478 516 c 4
 488 516 496 513 502 507 c 4
 508 501 511 493.333333333 511 484 c 260
167 429 m 260x1e1e
 167 438.333333333 170.166666667 446.166666667 176.5 452.5 c 4
 182.833333333 458.833333333 190.666666667 462 200 462 c 260
 209.333333333 462 216.833333333 459 222.5 453 c 4
 228.166666667 447 231 439 231 429 c 260
 231 419 228.166666667 411.166666667 222.5 405.5 c 4
 216.833333333 399.833333333 209.333333333 397 200 397 c 260
 190.666666667 397 182.833333333 400 176.5 406 c 4
 170.166666667 412 167 419.666666667 167 429 c 260x1e1e
595 429 m 260x1e0f
 595 419.666666667 591.833333333 412 585.5 406 c 4
 579.166666667 400 571 397 561 397 c 4
 552.333333333 397 545 399.833333333 539 405.5 c 4
 533 411.166666667 530 419 530 429 c 260
 530 439 533 447 539 453 c 4
 545 459 552.333333333 462 561 462 c 4
 571 462 579.166666667 458.833333333 585.5 452.5 c 4
 591.833333333 446.166666667 595 438.333333333 595 429 c 260x1e0f
116 343 m 260x1c2e
 116 352.333333333 119 360 125 366 c 4
 131 372 138.666666667 375 148 375 c 4
 158 375 165.666666667 372 171 366 c 4
 176.333333333 360 179 352.333333333 179 343 c 260
 179 333.666666667 176.333333333 326 171 320 c 4
 165.666666667 314 158 311 148 311 c 4
 138.666666667 311 131 314 125 320 c 4
 119 326 116 333.666666667 116 343 c 260x1c2e
646 343 m 260x1c0e80
 646 333.666666667 643 326 637 320 c 4
 631 314 623.333333333 311 614 311 c 260
 604.666666667 311 597.166666667 314 591.5 320 c 4
 585.833333333 326 583 333.666666667 583 343 c 260
 583 352.333333333 585.833333333 360 591.5 366 c 4
 597.166666667 372 604.666666667 375 614 375 c 260
 623.333333333 375 631 372 637 366 c 4
 643 360 646 352.333333333 646 343 c 260x1c0e80
100 249 m 260x1c4e
 100 258.333333333 103.166666667 266.166666667 109.5 272.5 c 4
 115.833333333 278.833333333 123.333333333 282 132 282 c 4
 141.333333333 282 149 278.833333333 155 272.5 c 4
 161 266.166666667 164 258.333333333 164 249 c 260
 164 239.666666667 161 232.166666667 155 226.5 c 4
 149 220.833333333 141.333333333 218 132 218 c 4
 123.333333333 218 115.833333333 220.833333333 109.5 226.5 c 4
 103.166666667 232.166666667 100 239.666666667 100 249 c 260x1c4e
661 249 m 260x1c0e40
 661 239.666666667 658.166666667 232.166666667 652.5 226.5 c 4
 646.833333333 220.833333333 639 218 629 218 c 4
 619.666666667 218 612.166666667 220.833333333 606.5 226.5 c 4
 600.833333333 232.166666667 598 239.666666667 598 249 c 260
 598 258.333333333 600.833333333 266.166666667 606.5 272.5 c 4
 612.166666667 278.833333333 619.666666667 282 629 282 c 4
 639 282 646.833333333 278.833333333 652.5 272.5 c 4
 658.166666667 266.166666667 661 258.333333333 661 249 c 260x1c0e40
116 157 m 4x1c2e
 116 166.333333333 119 174.166666667 125 180.5 c 4
 131 186.833333333 138.666666667 190 148 190 c 4
 158 190 165.666666667 186.833333333 171 180.5 c 4
 176.333333333 174.166666667 179 166.333333333 179 157 c 4
 179 148.333333333 176.333333333 141 171 135 c 4
 165.666666667 129 158 126 148 126 c 4
 138.666666667 126 131 129 125 135 c 4
 119 141 116 148.333333333 116 157 c 4x1c2e
646 157 m 4x1c0e80
 646 148.333333333 643 141 637 135 c 4
 631 129 623.333333333 126 614 126 c 260
 604.666666667 126 597.166666667 129 591.5 135 c 4
 585.833333333 141 583 148.333333333 583 157 c 4
 583 166.333333333 585.833333333 174.166666667 591.5 180.5 c 4
 597.166666667 186.833333333 604.666666667 190 614 190 c 260
 623.333333333 190 631 186.833333333 637 180.5 c 4
 643 174.166666667 646 166.333333333 646 157 c 4x1c0e80
167 70 m 260x3c1e
 167 79.3333333333 170 87.1666666667 176 93.5 c 4
 182 99.8333333333 189.666666667 103 199 103 c 260
 208.333333333 103 215.833333333 99.8333333333 221.5 93.5 c 4
 227.166666667 87.1666666667 230 79.3333333333 230 70 c 260
 230 60.6666666667 227.166666667 53 221.5 47 c 4
 215.833333333 41 208.333333333 38 199 38 c 260
 189.666666667 38 182 41 176 47 c 4
 170 53 167 60.6666666667 167 70 c 260x3c1e
595 70 m 260x3c0f
 595 60.6666666667 592 53 586 47 c 4
 580 41 572.333333333 38 563 38 c 260
 553.666666667 38 546.166666667 41 540.5 47 c 4
 534.833333333 53 532 60.6666666667 532 70 c 260
 532 79.3333333333 534.833333333 87.1666666667 540.5 93.5 c 4
 546.166666667 99.8333333333 553.666666667 103 563 103 c 260
 572.333333333 103 580 99.8333333333 586 93.5 c 4
 592 87.1666666667 595 79.3333333333 595 70 c 260x3c0f
251 16 m 4
 251 26 254.333333333 34 261 40 c 4
 267.666666667 46 275.333333333 49 284 49 c 4
 293.333333333 49 300.833333333 46 306.5 40 c 4
 312.166666667 34 315 26 315 16 c 4
 315 7.33333333333 312.166666667 0 306.5 -6 c 4
 300.833333333 -12 293.333333333 -15 284 -15 c 4x5c0e
 275.333333333 -15 267.666666667 -12 261 -6 c 4
 254.333333333 0 251 7.33333333333 251 16 c 4
511 16 m 4
 511 7.33333333333 508 0 502 -6 c 4
 496 -12 488 -15 478 -15 c 4
 468.666666667 -15 461.166666667 -12 455.5 -6 c 4
 449.833333333 0 447 7.33333333333 447 16 c 4
 447 26 449.833333333 34 455.5 40 c 4
 461.166666667 46 468.666666667 49 478 49 c 4
 488 49 496 46 502 40 c 4
 508 34 511 26 511 16 c 4
412 -1 m 4
 412 -10.3333333333 409 -17.8333333333 403 -23.5 c 4
 397 -29.1666666667 389.333333333 -32 380 -32 c 260
 370.666666667 -32 363 -29.1666666667 357 -23.5 c 4
 351 -17.8333333333 348 -10.3333333333 348 -1 c 4
 348 9 351 17 357 23 c 4
 363 29 370.666666667 32 380 32 c 260x9c0e
 389.333333333 32 397 29 403 23 c 4
 409 17 412 9 412 -1 c 4
EndSplineSet
Layer: 2
EndChar

